<svg width="48" height="48" viewBox="0 0 128 128" xmlns="http://www.w3.org/2000/svg">
  <defs>
    <linearGradient id="bucketGradient48" x1="0%" y1="0%" x2="100%" y2="100%">
      <stop offset="0%" style="stop-color:#667eea;stop-opacity:1" />
      <stop offset="100%" style="stop-color:#764ba2;stop-opacity:1" />
    </linearGradient>
  </defs>

  <circle cx="64" cy="64" r="60" fill="url(#bucketGradient48)" stroke="#ffffff" stroke-width="2"/>
  <path d="M -30 -20 L -25 25 Q -24 30 -20 30 L 20 30 Q 24 30 25 25 L 30 -20 Z" fill="#ffffff" stroke="#ffffff" stroke-width="2" opacity="0.9" transform="translate(64, 64)"/>
  <ellipse cx="64" cy="44" rx="30" ry="8" fill="#ffffff" stroke="#ffffff" stroke-width="2" opacity="0.95"/>
  <ellipse cx="64" cy="42" rx="26" ry="6" fill="none" stroke="#ffffff" stroke-width="1.5" opacity="0.7"/>
  <g transform="translate(64, 69)">
    <rect x="-12" y="-8" width="24" height="28" rx="2" fill="#667eea" opacity="0.8"/>
    <rect x="-8" y="-4" width="16" height="2" fill="#ffffff" opacity="0.9"/>
    <rect x="-8" y="1" width="12" height="2" fill="#ffffff" opacity="0.9"/>
    <rect x="-8" y="6" width="14" height="2" fill="#ffffff" opacity="0.9"/>
    <rect x="-8" y="11" width="10" height="2" fill="#ffffff" opacity="0.9"/>
  </g>
  <ellipse cx="54" cy="59" rx="8" ry="12" fill="#ffffff" opacity="0.3"/>
</svg>